HIERARCHY
ROOT Hips
{
	OFFSET 0.000000 0.000000 0.000000 
	CHANNELS 6 Xposition Yposition Zposition Yrotation Zrotation Xrotation 
	JOINT Lumbar
	{
		OFFSET 0.000000 0.000000 0.000000 
		CHANNELS 3 Zrotation Xrotation Yrotation
		JOINT Neck
		{
			OFFSET 0.000000 0.445665 0.000000 
			CHANNELS 3 Zrotation Xrotation Yrotation
			End Site
			{
				OFFSET 0.000000 0.227535 0.000000 
			}
		}
		JOINT RightShoulder
		{
			OFFSET 0.019635 0.377685 0.194865 
			CHANNELS 3 Zrotation Xrotation Yrotation
			JOINT RightElbow
			{
				OFFSET 0.000000 -0.243375 0.000000 
				CHANNELS 2 Zrotation Yrotation
				JOINT RightWrist
				{
					OFFSET 0.000000 -0.264825 0.000000 
					CHANNELS 2 Zrotation Xrotation
					End Site
					{
						OFFSET 0.006600 -0.176220 0.000990 
					}
				}
			}
		}
		JOINT LeftShoulder
		{
			OFFSET 0.019635 0.377685 -0.194865 
			CHANNELS 3 Zrotation Xrotation Yrotation
			JOINT LeftElbow
			{
				OFFSET 0.000000 -0.243375 0.000000 
				CHANNELS 2 Zrotation Yrotation
				JOINT LeftWrist
				{
					OFFSET 0.000000 -0.264825 0.000000 
					CHANNELS 2 Zrotation Xrotation
					End Site
					{
						OFFSET 0.006600 -0.176220 -0.000990 
					}
				}
			}
		}
	}
	JOINT RightHip
	{
		OFFSET 0.052140 -0.069960 0.075570 
		CHANNELS 3 Zrotation Xrotation Yrotation
		JOINT RightKnee
		{
			OFFSET 0.000000 -0.402270 0.000000 
			CHANNELS 1 Zrotation
			JOINT RightAnkle
			{
				OFFSET 0.000000 -0.404085 0.000000 
				CHANNELS 3 Zrotation Xrotation Yrotation
				End Site
				{
					OFFSET 0.204105 -0.089430 0.008415 
				}
			}
		}
	}
	JOINT LeftHip
	{
		OFFSET 0.052140 -0.069960 -0.075570 
		CHANNELS 3 Zrotation Xrotation Yrotation
		JOINT LeftKnee
		{
			OFFSET 0.000000 -0.402270 0.000000 
			CHANNELS 1 Zrotation
			JOINT LeftAnkle
			{
				OFFSET 0.000000 -0.404085 0.000000 
				CHANNELS 3 Zrotation Xrotation Yrotation
				End Site
				{
					OFFSET 0.204105 -0.089430 -0.008415 
				}
			}
		}
	}
}
MOTION
Frames: 29
Frame Time: 0.02
-1.18084 0.95175 0.04141 241.80003 0 0.78455 6.08007 -1.8061 -4.36722 1.76436 15.3337 -1.84454 2.29589 -30.108 -29.99198 67.61322 81.89449 8.30413 -3.5956 -6.0063 1.6309 27.30344 65.46512 -83.79243 -10.51585 4.19068 5.91783 8.27642 16.35797 -24.30159 9.87776 -8.33916 -9.9863 13.66317 2.71839 -17.06427 -25.52031 6.95964 4.19801 3.81086
-1.17737 0.95169 0.03398 243.32903 0 0.6279 4.94014 -1.42679 -4.18402 2.36313 14.61302 -2.00911 1.03085 -29.24587 -28.76746 67.99168 82.02801 8.26557 -3.55276 -6.80336 1.95397 25.75007 66.80469 -82.7186 -11.27879 3.89294 6.14397 8.24744 15.0764 -23.79767 9.57763 -8.22135 -10.17882 14.54658 2.61392 -16.4888 -25.82991 6.87675 4.4949 4.5404
-1.17322 0.95159 0.02599 244.9516 0 0.42136 3.643 -0.96176 -4.09245 2.6633 13.87352 -1.97936 0.05428 -28.55216 -27.29115 68.25314 82.23953 8.27132 -3.47324 -7.29893 2.39429 23.88175 68.20527 -81.607 -12.2467 3.62765 6.37213 8.21013 13.7073 -23.20157 9.24184 -8.0657 -10.36959 15.53818 2.49583 -15.56505 -26.34616 6.89563 4.9669 5.59076
-1.16941 0.95152 0.01832 246.52628 0 0.23691 2.4375 -0.53798 -3.94547 3.04671 13.15033 -2.03605 -1.00617 -27.78459 -25.92744 68.57918 82.40794 8.23387 -3.41012 -7.87465 2.78392 22.16295 69.5749 -80.51984 -13.11281 3.35081 6.5985 8.17784 12.38675 -22.6541 8.92196 -7.9281 -10.563 16.47065 2.39033 -14.78073 -26.8144 6.87214 5.35252 6.4798
-1.16543 0.95144 0.01035 248.12727 0 0.05508 1.12959 -0.10169 -3.84933 3.66002 12.38665 -2.11063 -2.28166 -26.99373 -24.56214 68.88283 82.60753 8.28898 -3.34831 -8.69928 3.16571 20.40941 70.97967 -79.38253 -14.01554 3.05393 6.83484 8.13853 11.01924 -22.07937 8.60013 -7.78174 -10.74293 17.45255 2.25537 -14.07143 -27.08919 6.82628 5.76573 7.43688
-1.16165 0.95135 0.00288 249.69378 0 -0.14385 0.00442 0.32675 -3.67382 3.72425 11.70501 -2.09685 -3.0389 -26.29461 -23.1456 69.19654 82.75985 8.16536 -3.27614 -8.93567 3.59043 18.65785 72.31956 -78.35151 -14.89113 2.80956 7.04866 8.11212 9.73359 -21.54023 8.27583 -7.64661 -10.95246 18.35089 2.17997 -13.1295 -27.81204 6.85351 6.16321 8.32596
-1.15862 0.95128 -0.00319 251.14679 0 -0.38038 -0.58039 0.72448 -3.23194 2.29901 11.26543 -1.90099 -2.38434 -25.82571 -21.62846 69.55325 82.77909 7.51483 -3.16901 -7.55903 4.10498 16.97155 73.43835 -77.58293 -15.63544 2.69565 7.19908 8.12834 8.68406 -21.10982 7.94497 -7.55178 -11.24713 19.03335 2.26574 -11.57315 -29.76473 7.05778 6.4773 8.96566
-1.15581 0.9512 -0.00874 252.55958 0 -0.63155 -0.97349 1.10821 -2.7121 0.34025 10.90885 -1.61968 -1.22554 -25.44267 -20.07319 69.92312 82.74572 6.68652 -3.0546 -5.61213 4.65783 15.30254 74.49066 -76.93287 -16.34637 2.63555 7.327 8.15691 7.72426 -20.72192 7.61492 -7.47024 -11.57187 19.61876 2.41306 -9.80516 -32.15066 7.33325 6.7687 9.52137
-1.1529 0.95112 -0.01447 253.98857 0 -0.87492 -1.44942 1.49111 -2.24522 -1.34817 10.50767 -1.36598 -0.32745 -25.00937 -18.55029 70.2914 82.72556 5.95603 -2.9543 -3.9629 5.19325 13.63736 75.58861 -76.25657 -17.07661 2.55597 7.46352 8.17728 6.73084 -20.32007 7.29024 -7.38337 -11.88182 20.2223 2.53725 -8.17164 -34.3144 7.57648 7.06947 10.10585
-1.14999 0.95105 -0.02044 255.43369 0 -1.12659 -1.94698 1.91013 -1.70844 -3.17243 10.13242 -1.15025 0.71639 -24.62586 -16.95576 70.63606 82.75184 5.15922 -2.81026 -2.13352 5.73468 11.91032 76.62691 -75.46003 -17.79676 2.45635 7.60297 8.20954 5.70002 -19.88572 6.9395 -7.29221 -12.1966 20.94349 2.64195 -6.36479 -36.60465 7.8213 7.38236 10.74617
-1.14713 0.95096 -0.02579 256.82935 0 -1.36163 -2.35473 2.24606 -1.29628 -4.82663 9.72603 -0.84113 1.56914 -24.16102 -15.50369 71.03633 82.66966 4.45266 -2.75214 -0.55698 6.26894 10.32215 77.76915 -74.94517 -18.52706 2.41091 7.73606 8.21846 4.77453 -19.53869 6.64439 -7.21349 -12.50821 21.38998 2.8002 -4.87266 -38.71586 8.0801 7.65977 11.23983
-1.14446 0.95083 -0.02947 258.13935 0 -1.56443 -2.5355 2.38386 -1.25904 -5.96652 9.1895 -0.26627 1.80435 -23.41648 -14.4663 71.57246 82.28405 4.08083 -2.96793 0.26044 6.79218 9.10172 79.2436 -75.15784 -19.29554 2.50156 7.8143 8.17308 4.07841 -19.35355 6.49786 -7.16717 -12.80282 21.14581 3.10542 -4.30843 -40.35987 8.34405 7.86691 11.40411
-1.14182 0.95068 -0.03256 259.39164 0 -1.74585 -2.63683 2.43235 -1.34787 -6.90027 8.62365 0.39286 1.82458 -22.59379 -13.57401 72.16863 81.79299 3.79688 -3.26483 0.78837 7.30282 8.02545 80.81849 -75.65372 -20.07445 2.64477 7.8958 8.10081 3.49426 -19.26957 6.40878 -7.13245 -13.09079 20.62025 3.45851 -4.06871 -41.78242 8.62104 8.03492 11.41431
-1.13912 0.95053 -0.03598 260.64444 0 -1.92637 -2.79025 2.5037 -1.37007 -7.86948 8.08658 0.99413 1.91685 -21.82703 -12.60698 72.74562 81.36201 3.44623 -3.50101 1.39482 7.80685 6.89069 82.32895 -76.03468 -20.84565 2.76409 8.00266 8.03297 2.88374 -19.18306 6.29626 -7.09233 -13.38575 20.19335 3.78218 -3.67751 -43.21851 8.90351 8.20437 11.45412
-1.13663 0.95042 -0.03912 262.00932 0 -2.15503 -2.86821 2.65171 -1.42655 -9.09955 7.48587 1.68292 2.12544 -20.97267 -11.67 73.28333 80.88158 3.20655 -3.83468 2.24203 8.3647 5.72146 83.9193 -76.36322 -21.62643 2.8855 7.99159 8.00074 2.16784 -18.90865 6.17083 -7.05497 -13.67574 19.88439 4.14584 -3.29545 -45.03931 9.1449 8.43875 11.65146
-1.13369 0.95023 -0.04273 263.12146 0 -2.27464 -3.0887 2.61622 -1.44568 -9.73505 7.01127 2.20601 2.04635 -20.28673 -10.71242 73.92379 80.47519 2.75367 -3.98838 2.51561 8.80655 4.66462 85.36437 -76.86453 -22.39255 3.01408 8.23201 7.88489 1.70304 -19.05652 6.08798 -7.0122 -13.96061 19.26686 4.42991 -2.97442 -45.99838 9.46835 8.53314 11.49815
-1.12959 0.94987 -0.04768 263.60272 0 -2.12972 -3.70616 2.12178 -1.30451 -8.73995 6.87768 2.27123 1.12131 -20.03706 -9.60657 74.77249 80.33804 1.73771 -3.59279 1.24234 8.93531 3.82673 86.41412 -77.79105 -23.09282 3.15164 9.1218 7.57124 1.85306 -20.27788 6.09129 -6.97008 -14.35017 17.84407 4.54337 -2.74174 -44.64963 10.0636 8.21237 10.29966
-1.12503 0.94945 -0.05314 263.82269 0 -1.87103 -4.47249 1.44258 -1.1266 -7.16157 6.87396 2.16374 -0.06624 -19.96875 -8.48795 75.73202 80.2717 0.49732 -3.019 -0.59152 8.9476 3.10676 87.30855 -78.87733 -23.78087 3.29389 10.27042 7.17054 2.26203 -21.93 6.13871 -6.91813 -14.71397 16.1257 4.56515 -2.56001 -42.43752 10.73179 7.75836 8.77341
-1.12061 0.94903 -0.05845 264.12681 0 -1.64225 -5.18371 0.82906 -0.98329 -5.86889 6.82017 2.12005 -1.07129 -19.84753 -7.40912 76.68296 80.14804 -0.67174 -2.54863 -2.1538 9.00922 2.37042 88.25483 -79.87912 -24.49151 3.43248 11.3329 6.79069 2.58431 -23.43318 6.17731 -6.85911 -15.01104 14.55675 4.58646 -2.3572 -40.60482 11.33421 7.39172 7.4753
-1.11644 0.9487 -0.06344 264.57181 0 -1.49987 -5.84419 0.28312 -0.7692 -4.46837 6.72889 2.1365 -2.36139 -19.5963 -6.1824 77.46709 80.12816 -1.71289 -1.98798 -3.81048 9.08223 1.4847 89.2849 -80.94313 -25.13671 3.57964 12.27291 6.48397 2.77563 -24.75525 6.17053 -6.85114 -15.6341 12.91151 4.78022 -2.15889 -38.81235 12.07397 6.91439 5.84558
-1.11168 0.94818 -0.06917 264.66604 0 -1.15691 -6.64036 -0.43812 -0.69162 -3.17402 6.74533 1.99166 -3.10351 -19.66338 -5.27066 78.61483 79.90862 -3.06925 -1.56996 -5.38282 9.10828 0.93282 90.10075 -81.90918 -25.90748 3.70906 13.51643 6.01081 3.30483 -26.53919 6.26801 -6.73193 -15.57832 11.36203 4.60132 -1.9565 -36.74268 12.54593 6.63156 4.82055
-1.10519 0.94698 -0.07707 263.82442 0 -0.23498 -7.83115 -1.66739 -1.00476 -2.16383 7.04135 1.38938 -2.38924 -20.53714 -5.13079 80.81813 79.13694 -5.28809 -1.6068 -6.73375 8.99543 1.30428 90.37681 -82.58741 -27.09504 3.79098 15.645 5.04447 4.65651 -29.63055 6.64247 -6.32946 -13.60226 10.12376 3.33763 -1.75629 -34.04567 12.25113 6.96212 5.63589
-1.09818 0.94559 -0.08564 262.647 0 0.87512 -9.14381 -3.05286 -1.45536 -1.30817 7.43894 0.63947 -1.09295 -21.73115 -5.32707 83.36746 78.1605 -7.8069 -1.78985 -7.95302 8.84563 2.00219 90.4407 -83.15691 -28.3975 3.85424 18.04842 3.92282 6.34507 -33.14395 7.12023 -5.81195 -10.95467 8.99952 1.71576 -1.5471 -31.11591 11.68637 7.4858 7.05623
-1.09156 0.94439 -0.09373 261.64145 0 1.86395 -10.36343 -4.32159 -1.83881 -0.48441 7.78096 -0.00641 0.01994 -22.7965 -5.43428 85.7079 77.26608 -10.15946 -1.8939 -9.13149 8.73855 2.5288 90.59079 -83.75937 -29.60246 3.92392 20.25501 2.9099 7.91285 -36.37567 7.5503 -5.33215 -8.64745 7.83965 0.3097 -1.3192 -28.33959 11.25077 7.89169 8.13949
-1.08429 0.94278 -0.10257 260.53694 0 3.00675 -11.74487 -5.79193 -2.23937 0.78388 8.16686 -0.81015 0.78989 -23.79455 -5.26993 88.2747 76.41594 -12.65087 -2.04402 -10.74748 8.52123 3.15257 90.77408 -84.43345 -30.99541 4.00204 22.77861 1.73771 9.36338 -40.00905 7.98446 -4.91094 -6.18672 6.59576 -1.32078 -1.17588 -25.32483 10.78875 8.4167 9.46846
-1.07825 0.94197 -0.11 259.57284 0 3.87326 -12.81917 -6.87458 -2.6392 1.09087 8.48427 -1.32298 2.40483 -25.00939 -5.75404 90.44514 75.42995 -14.91546 -2.13617 -11.42245 8.52213 3.65482 90.84563 -84.93493 -32.02775 4.05863 24.6984 0.85542 11.12211 -42.8915 8.43485 -4.34374 -3.89167 5.56435 -2.57101 -0.87066 -22.77141 10.31876 8.74491 10.43998
-1.07571 0.94355 -0.11334 258.98802 0 3.9191 -12.99087 -6.86748 -2.98688 -1.2968 8.58274 -0.95143 6.30506 -26.71697 -7.92116 91.48281 74.06366 -16.52958 -2.02407 -9.45259 9.17068 3.6984 90.61004 -84.94493 -32.00591 4.05534 24.93023 0.86685 13.75634 -43.67278 8.89623 -3.37651 -2.17751 5.03969 -2.65359 0.0307 -21.48163 9.87468 8.45057 10.22165
-1.07444 0.94591 -0.11524 258.5735 0 3.68153 -12.85391 -6.45996 -3.33143 -4.63326 8.60888 -0.28896 11.01785 -28.6345 -10.73295 92.09992 72.57475 -17.89433 -1.85037 -6.55326 10.03381 3.61534 90.27857 -84.79088 -31.62292 4.0318 24.53632 1.16715 16.66781 -43.66894 9.37076 -2.27302 -0.66281 4.73725 -2.3456 1.06952 -20.68268 9.43496 7.95766 9.63329
-1.07261 0.94782 -0.11781 258.14284 0 3.58146 -12.87268 -6.22285 -3.68959 -7.4893 8.67097 0.2109 15.29993 -30.47482 -13.26773 92.87921 71.18163 -19.34037 -1.71211 -4.12659 10.7759 3.61867 90.02607 -84.73956 -31.42519 4.02093 24.39523 1.29736 19.38101 -43.97087 9.84589 -1.24591 0.91849 4.3674 -2.23651 1.94295 -19.70552 9.00472 7.57779 9.25357
